<svg xmlns="http://www.w3.org/2000/svg" version="1.1" xmlns:xlink="http://www.w3.org/1999/xlink" xmlns:svgjs="http://svgjs.dev/svgjs" width="2000" height="2000" viewBox="0 0 2000 2000"><g transform="matrix(1,0,0,1,-0.28443113772425477,-0.28443113772459583)"><svg viewBox="0 0 334 334" data-background-color="#ffffff" preserveAspectRatio="xMidYMid meet" height="2000" width="2000" xmlns="http://www.w3.org/2000/svg" xmlns:xlink="http://www.w3.org/1999/xlink"><g id="tight-bounds" transform="matrix(1,0,0,1,0.04749999999998522,0.04750000000001364)"><svg viewBox="0 0 333.90454557049503 333.90454557049503" height="333.90454557049503" width="333.90454557049503"><g><svg></svg></g><g><svg viewBox="0 0 333.90454557049503 333.90454557049503" height="333.90454557049503" width="333.90454557049503"><g><path d="M0 166.952c0-92.205 74.747-166.952 166.952-166.952 92.205 0 166.952 74.747 166.953 166.952 0 92.205-74.747 166.952-166.953 166.953-92.205 0-166.952-74.747-166.952-166.953zM166.952 316.63c82.665 0 149.677-67.013 149.678-149.678 0-82.665-67.013-149.677-149.678-149.677-82.665 0-149.677 67.013-149.677 149.677 0 82.665 67.013 149.677 149.677 149.678z" data-fill-palette-color="tertiary" fill="#ffdc00" stroke="transparent"></path><ellipse rx="160.27418187383762" ry="160.27418187383762" cx="166.95227278524752" cy="166.95227278524752" fill="#ffdc00" stroke="transparent" stroke-width="0" fill-opacity="1" data-fill-palette-color="tertiary"></ellipse></g><g transform="matrix(1,0,0,1,69.932096427559,71.17305217166897)"><svg viewBox="0 0 194.04035271537703 191.5584412271571" height="191.5584412271571" width="194.04035271537703"><g><svg viewBox="0 0 194.04035271537703 191.5584412271571" height="191.5584412271571" width="194.04035271537703"><g><svg viewBox="0 0 194.04035271537703 191.5584412271571" height="191.5584412271571" width="194.04035271537703"><g id="textblocktransform"><svg viewBox="0 0 194.04035271537703 191.5584412271571" height="191.5584412271571" width="194.04035271537703" id="textblock"><g><svg viewBox="0 0 194.04035271537703 191.5584412271571" height="191.5584412271571" width="194.04035271537703"><g transform="matrix(1,0,0,1,0,0)"><svg width="194.04035271537703" viewBox="1.7999999523162842 -36.5 43 42.45000076293945" height="191.5584412271571" data-palette-color="#010411"><path d="M25.95-17.25L27.2-17.25Q28-17.25 28.48-16.78 28.95-16.3 29.65-14.9L29.65-14.9 34.25-5.7Q34.5-5.2 34.88-5.1 35.25-5 35.6-5L35.6-5 35.85-5Q36.25-5 36.6-5.33 36.95-5.65 37-6.05L37-6.05 38.25-11.75Q38.45-12.7 38.48-14.2 38.5-15.7 38.5-16.8L38.5-16.8 38.5-31.5 39-31.5 39-16.75Q39-15.65 38.98-14.15 38.95-12.65 38.75-11.7L38.75-11.7 37.5-6.05Q37.3-5.25 36.88-4.88 36.45-4.5 35.85-4.5L35.85-4.5 35.5-4.5Q35.05-4.5 34.58-4.67 34.1-4.85 33.85-5.35L33.85-5.35 29.25-14.65Q28.6-15.95 28.2-16.35 27.8-16.75 27.2-16.75L27.2-16.75 25.95-16.75Q25.35-16.75 24.95-16.35 24.55-15.95 23.9-14.65L23.9-14.65 19.3-5.35Q19.05-4.85 18.57-4.67 18.1-4.5 17.65-4.5L17.65-4.5 17.3-4.5Q16.7-4.5 16.28-4.88 15.85-5.25 15.65-6.05L15.65-6.05 14.4-11.7Q14.2-12.65 14.18-14.15 14.15-15.65 14.15-16.75L14.15-16.75 14.15-31.5 14.65-31.5 14.65-16.8Q14.65-15.7 14.68-14.2 14.7-12.7 14.9-11.75L14.9-11.75 16.15-6.05Q16.2-5.65 16.55-5.33 16.9-5 17.3-5L17.3-5 17.55-5Q17.9-5 18.28-5.1 18.65-5.2 18.9-5.7L18.9-5.7 23.5-14.9Q24.2-16.3 24.68-16.78 25.15-17.25 25.95-17.25L25.95-17.25ZM42.5-36L35.05-36Q34.1-36 33.68-35.58 33.25-35.15 33.25-34.2L33.25-34.2 33.25-15.8 30.35-22.1Q29.95-22.95 29.3-23.3 28.65-23.65 27.7-23.65L27.7-23.65 25.6-23.65Q24.65-23.65 24-23.3 23.35-22.95 22.95-22.1L22.95-22.1 20.05-15.8 20.05-34.2Q20.05-35.15 19.63-35.58 19.2-36 18.25-36L18.25-36 10.55-36Q9.6-36 9.18-35.58 8.75-35.15 8.75-34.2L8.75-34.2 8.75-14.9Q8.75-13.3 8.88-11.93 9-10.55 9.65-8.7L9.65-8.7 12.15-1.8Q12.4-1 12.98-0.5 13.55 0 14.35 0L14.35 0 20.95 0Q21.75 0 22.3-0.38 22.85-0.75 23.05-1.5L23.05-1.5 25.4-9.65Q25.55-10.15 25.78-10.33 26-10.5 26.3-10.5L26.3-10.5 26.75-10.5Q27.05-10.5 27.28-10.33 27.5-10.15 27.65-9.65L27.65-9.65 29.95-1.5Q30.15-0.7 30.8-0.35 31.45 0 32.25 0L32.25 0 38.9 0Q39.7 0 40.18-0.53 40.65-1.05 40.9-1.8L40.9-1.8 43.4-8.6Q44.05-10.45 44.18-11.83 44.3-13.2 44.3-14.8L44.3-14.8 44.3-34.2Q44.3-35.15 43.88-35.58 43.45-36 42.5-36L42.5-36ZM22 0.55L16.25 5.35Q15.9 5.6 15.45 5.78 15 5.95 14.5 5.95L14.5 5.95 7.9 5.95Q6.95 5.95 6.25 5.35 5.55 4.75 5.25 3.8L5.25 3.8 2.75-3.1Q2.05-4.95 1.93-6.38 1.8-7.8 1.8-9.45L1.8-9.45 1.8-28.75Q1.8-29.4 1.98-29.85 2.15-30.3 2.5-30.6L2.5-30.6 8.95-36.05Q9.2-36.25 9.63-36.38 10.05-36.5 10.55-36.5L10.55-36.5 18.25-36.5Q19.45-36.5 20-35.95 20.55-35.4 20.55-34.2L20.55-34.2 20.55-21.15 23.35-23.5Q23.75-23.85 24.33-24 24.9-24.15 25.6-24.15L25.6-24.15 26.3-24.15 26.3-28.75Q26.3-29.4 26.45-29.85 26.6-30.3 26.9-30.55L26.9-30.55 26.95-30.6 33.45-36.05Q33.7-36.25 34.1-36.38 34.5-36.5 35.05-36.5L35.05-36.5 42.5-36.5Q43.7-36.5 44.25-35.95 44.8-35.4 44.8-34.2L44.8-34.2 44.8-14.8Q44.8-13.15 44.68-11.73 44.55-10.3 43.85-8.45L43.85-8.45 41.35-1.65Q41.2-1.15 40.95-0.75 40.7-0.35 40.35 0L40.35 0 33.9 5.35Q33.6 5.65 33.25 5.8 32.9 5.95 32.45 5.95L32.45 5.95 25.8 5.95Q24.8 5.95 24.05 5.5 23.3 5.05 23 4.1L23 4.1 22 0.55Z" opacity="1" transform="matrix(1,0,0,1,0,0)" fill="#010411" class="wordmark-text-0" data-fill-palette-color="quaternary" id="text-0"></path></svg></g></svg></g></svg></g></svg></g><g></g></svg></g></svg></g></svg></g><defs></defs></svg><rect width="333.90454557049503" height="333.90454557049503" fill="none" stroke="none" visibility="hidden"></rect></g></svg></g></svg>